<svg xmlns="http://www.w3.org/2000/svg" xmlns:xlink="http://www.w3.org/1999/xlink"><symbol id="icon-button-prev" viewBox="0 0 16 32">
<path d="M17 1L0.999999 17L17 33"/>
</symbol><symbol id="icon-close" viewBox="0 0 20 20"><g fill="none"><path d="M.293 18.291a1 1 0 101.414 1.414L10 11.413l8.292 8.292a1 1 0 101.414-1.414l-8.292-8.292 8.292-8.292A1 1 0 1018.291.293L9.999 8.585 1.707.293A1 1 0 10.293 1.707L8.585 10 .293 18.291z"/></g></symbol><symbol id="icon-ft-ok" viewBox="0 0 9 16">
<path d="M4.41464 2.38024C5.31313 2.38024 6.04383 3.13455 6.04383 4.06206C6.04383 4.98678 5.31313 5.74108 4.41464 5.74108C3.51614 5.74108 2.78544 4.98678 2.78544 4.06206C2.78544 3.13455 3.51614 2.38024 4.41464 2.38024ZM4.41464 8.12133C6.5851 8.12133 8.34961 6.29983 8.34961 4.06206C8.34961 1.8215 6.5851 0 4.41464 0C2.24418 0 0.482373 1.8215 0.482373 4.06206C0.482373 6.29983 2.24418 8.12133 4.41464 8.12133ZM6.00595 11.4347C6.80701 11.2447 7.57831 10.9178 8.29007 10.4569C8.82862 10.1077 8.991 9.37291 8.65271 8.81696C8.31172 8.25822 7.60267 8.0906 7.06141 8.4426C5.45115 9.48745 3.37812 9.48745 1.76516 8.4426C1.22661 8.0906 0.514849 8.25822 0.176561 8.81696C-0.161728 9.37291 0.000650437 10.1077 0.539206 10.4569C1.25096 10.9178 2.02226 11.2447 2.82333 11.4347L0.623101 13.7032C0.173854 14.1669 0.173854 14.9212 0.623101 15.385C0.850431 15.6169 1.14271 15.7342 1.4377 15.7342C1.73269 15.7342 2.02768 15.6169 2.25501 15.385L4.41464 13.1556L6.57698 15.385C7.02622 15.8515 7.75422 15.8515 8.20617 15.385C8.65542 14.9212 8.65542 14.1669 8.20617 13.7032L6.00595 11.4347Z"/>
</symbol><symbol id="icon-ft-reddit" viewBox="0 0 14 14">
<path d="M8.29535 0C7.84997 0 7.43204 0.225932 7.16397 0.55175C6.8959 0.877568 6.74814 1.27473 6.64049 1.6933C6.46952 2.36634 6.41675 3.11311 6.40408 3.78615C5.15239 3.86939 4.0189 4.24039 3.07749 4.81355C2.69544 4.49248 2.23529 4.31412 1.79414 4.31887C1.29177 4.32363 0.814734 4.54005 0.460122 4.98478C-0.217439 5.83381 -0.13934 7.2227 0.645871 8.04795C0.597323 8.30242 0.56144 8.56402 0.56144 8.82801C0.56144 11.6248 3.41944 13.8889 6.94444 13.8889C10.4695 13.8889 13.3274 11.6224 13.3274 8.82801C13.3274 8.56402 13.2916 8.30242 13.243 8.04795C14.0282 7.2227 14.1063 5.83381 13.4288 4.98478C13.0742 4.54005 12.5971 4.32363 12.0948 4.31887C11.6536 4.31412 11.1934 4.49248 10.8114 4.81355C9.87421 4.24277 8.74705 3.87177 7.50169 3.78615C7.51858 3.16543 7.5629 2.52093 7.68744 2.03577C7.76554 1.73135 7.85841 1.51018 7.95762 1.38889C8.05683 1.2676 8.12859 1.21766 8.29535 1.21766C8.65629 1.21766 8.70273 1.33419 8.92014 1.6172C9.0299 1.75989 9.15654 1.93826 9.35918 2.11187C9.56182 2.28548 9.86155 2.43531 10.1866 2.43531V1.21766C10.0958 1.21766 10.079 1.21528 10.0177 1.16058C9.95653 1.10588 9.8721 0.979833 9.74756 0.818113C9.49849 0.492295 9.01512 0 8.29535 0ZM11.8077 0.114155C10.9676 0.114155 10.2879 0.879947 10.2879 1.82648C10.2879 2.77302 10.9676 3.53881 11.8077 3.53881C12.6478 3.53881 13.3274 2.77302 13.3274 1.82648C13.3274 0.879947 12.6478 0.114155 11.8077 0.114155ZM11.8077 0.722983C12.348 0.722983 12.7871 1.21766 12.7871 1.82648C12.7871 2.43531 12.348 2.92998 11.8077 2.92998C11.2673 2.92998 10.8283 2.43531 10.8283 1.82648C10.8283 1.21766 11.2673 0.722983 11.8077 0.722983ZM6.94444 4.73744C9.93542 4.73744 12.4663 6.61387 12.4663 8.82801C12.4663 11.0445 9.93542 12.9186 6.94444 12.9186C3.95347 12.9186 1.42264 11.0445 1.42264 8.82801C1.42264 6.61387 3.95347 4.73744 6.94444 4.73744ZM1.81102 5.28919C1.96089 5.29157 2.11709 5.32962 2.26695 5.40335C1.72448 5.8671 1.29388 6.39983 1.00048 7.00152C0.797847 6.53063 0.852728 5.94321 1.1018 5.63166C1.28333 5.40335 1.53451 5.28682 1.81102 5.28919ZM12.0779 5.28919C12.3544 5.28682 12.6056 5.40335 12.7871 5.63166C13.0362 5.94321 13.091 6.53063 12.8884 7.00152C12.595 6.39983 12.1644 5.8671 11.6219 5.40335C11.7718 5.32962 11.928 5.29157 12.0779 5.28919ZM4.783 6.81126C4.24264 6.81126 3.8036 7.30594 3.8036 7.91476C3.8036 8.52359 4.24264 9.01826 4.783 9.01826C5.32336 9.01826 5.76241 8.52359 5.76241 7.91476C5.76241 7.30594 5.32336 6.81126 4.783 6.81126ZM9.10589 6.81126C8.56553 6.81126 8.12648 7.30594 8.12648 7.91476C8.12648 8.52359 8.56553 9.01826 9.10589 9.01826C9.64625 9.01826 10.0853 8.52359 10.0853 7.91476C10.0853 7.30594 9.64625 6.81126 9.10589 6.81126ZM4.25953 10.5594C4.60359 11.3608 5.66742 12.1385 6.94444 12.1385C8.22147 12.1385 9.30219 11.3608 9.64625 10.5594C9.02145 11.0136 8.03572 11.3204 6.94444 11.3204C5.85317 11.3204 4.88432 11.0136 4.25953 10.5594Z"/>
</symbol><symbol id="icon-ft-vk" viewBox="0 0 13 8">
<path d="M7.72274 6.05176C8.16542 5.90867 8.73219 6.99638 9.33555 7.41267C9.78841 7.728 10.1352 7.65993 10.1352 7.65993L11.7434 7.63678C11.7434 7.63678 12.5839 7.58492 12.1866 6.9172C12.1537 6.86163 11.9536 6.4222 10.9896 5.51786C9.9815 4.57185 10.1181 4.72512 11.3318 3.08962C12.0713 2.09267 12.3671 1.48376 12.2745 1.22445C12.1856 0.974862 11.6425 1.03969 11.6425 1.03969L9.83055 1.05219C9.65413 1.05265 9.50456 1.10729 9.43649 1.29066C9.4351 1.29252 9.14894 2.06211 8.76738 2.7164C7.96121 4.10046 7.63939 4.17408 7.50603 4.08749C7.19995 3.88699 7.27728 3.28317 7.27728 2.85392C7.27728 1.51246 7.47732 0.953099 6.88554 0.808627C6.68782 0.760469 6.54335 0.728982 6.03908 0.724351C5.39452 0.714627 4.84719 0.724351 4.53695 0.876695C4.33089 0.979956 4.17299 1.20639 4.26884 1.21935C4.38923 1.23556 4.65919 1.29344 4.80366 1.4907C4.98935 1.74631 4.98379 2.3191 4.98379 2.3191C4.98379 2.3191 5.08983 3.89857 4.73374 4.09444C4.48925 4.22872 4.15493 3.9546 3.43581 2.69788C3.06861 2.05516 2.79124 1.34484 2.79124 1.34484C2.79124 1.34484 2.73753 1.21287 2.64029 1.14063C2.52452 1.05497 2.36246 1.02765 2.36246 1.02765L0.642684 1.03876C0.642684 1.03876 0.384301 1.04617 0.289376 1.16008C0.205101 1.26103 0.28243 1.4694 0.28243 1.4694C0.28243 1.4694 1.62945 4.65566 3.15474 6.26059C4.55315 7.73402 6.14234 7.63632 6.14234 7.63632H6.86239C6.86239 7.63632 7.07956 7.61131 7.19069 7.49185C7.29442 7.38071 7.28979 7.17188 7.28979 7.17188C7.28979 7.17188 7.27543 6.1953 7.72274 6.05176Z"/>
</symbol><symbol id="icon-minus"><path d="M18 1H9H0"/></symbol><symbol id="icon-play" viewBox="0 0 13 15">
<path d="M13 7.5L0.249999 14.8612L0.25 0.138783L13 7.5Z"/>
</symbol><symbol id="icon-plus" viewBox="0 0 20 20"><path d="M10 0V10M10 20V10M10 10H20M10 10H0"/></symbol><symbol id="icon-ruble" viewBox="0 0 30 42">
<g>
<path fill-rule="evenodd" clip-rule="evenodd" d="M18.5 6H10V17H18.5C21.5376 17 24 14.5376 24 11.5C24 8.46243 21.5376 6 18.5 6ZM4 0V23H18.5C24.8513 23 30 17.8513 30 11.5C30 5.14873 24.8513 0 18.5 0H4Z"/>
<path fill-rule="evenodd" clip-rule="evenodd" d="M0 17H6V23H0V17Z"/>
<path fill-rule="evenodd" clip-rule="evenodd" d="M3.65854 28.3214V18H9.65854V28.3214H21V34.3214H9.65854V42H3.65854V34.3214H0V28.3214H3.65854Z"/>
</g>
</symbol><symbol id="logo" viewBox="0 0 119 23"><path d="M5.768 22.252c-1.176 0-2.196-.18-3.06-.54-.864-.36-1.524-.996-1.98-1.908-.432-.912-.648-2.196-.648-3.852v-1.224h3.528v1.512c0 1.008.096 1.788.288 2.34.192.552.456.936.792 1.152.336.192.72.288 1.152.288.696 0 1.248-.228 1.656-.684.432-.48.648-1.368.648-2.664 0-.96-.144-1.68-.432-2.16-.288-.48-.744-.864-1.368-1.152-.6-.312-1.38-.66-2.34-1.044a9.005 9.005 0 0 1-2.052-1.26A4.416 4.416 0 0 1 .656 9.22C.368 8.476.224 7.552.224 6.448c0-1.344.168-2.436.504-3.276a3.44 3.44 0 0 1 1.8-1.872C3.368.892 4.496.688 5.912.688c1.824 0 3.216.42 4.176 1.26.96.816 1.44 2.016 1.44 3.6v2.484H8.144V6.556c0-1.104-.18-1.896-.54-2.376-.336-.504-.888-.756-1.656-.756-.792 0-1.368.24-1.728.72-.336.456-.504 1.188-.504 2.196 0 .864.168 1.536.504 2.016.336.456.768.816 1.296 1.08.552.264 1.116.504 1.692.72 1.08.408 1.956.828 2.628 1.26a3.822 3.822 0 0 1 1.476 1.728c.312.72.468 1.74.468 3.06 0 1.512-.252 2.712-.756 3.6a4.18 4.18 0 0 1-2.088 1.872c-.888.384-1.944.576-3.168.576Zm15.148.18c-.816 0-1.572-.06-2.268-.18-.696-.12-1.296-.36-1.8-.72s-.9-.9-1.188-1.62c-.288-.72-.432-1.692-.432-2.916V.724h3.456v17.172c0 .648.096 1.152.288 1.512.216.336.492.564.828.684.336.12.708.18 1.116.18.408 0 .78-.06 1.116-.18.336-.12.6-.348.792-.684.216-.36.324-.864.324-1.512V.724h3.42V16.96c0 1.224-.144 2.208-.432 2.952-.264.72-.648 1.26-1.152 1.62-.504.36-1.104.6-1.8.72s-1.452.18-2.268.18ZM30.822 22V.724h7.2c1.344 0 2.376.3 3.096.9.72.6 1.08 1.488 1.08 2.664v3.78c0 .912-.12 1.764-.36 2.556a3.426 3.426 0 0 1-1.296 1.872c-.624.48-1.536.72-2.736.72h-3.384V22h-3.6Zm3.6-10.728h2.196c.72 0 1.26-.276 1.62-.828.36-.576.54-1.5.54-2.772V5.764c0-1.128-.156-1.932-.468-2.412-.312-.48-.744-.72-1.296-.72h-2.592v8.64ZM45.605 22V.724h9.576v2.448h-5.976v6.444h4.931v2.7h-4.931v7.308h5.976V22h-9.576Zm12.848 0V.724h7.344c1.344 0 2.376.3 3.096.9.744.6 1.116 1.488 1.116 2.664v3.384c0 1.176-.324 2.136-.972 2.88-.648.72-1.608 1.116-2.88 1.188.816.072 1.392.336 1.728.792.36.456.684 1.164.972 2.124L70.91 22h-3.816l-1.692-7.092a10.03 10.03 0 0 0-.576-1.584c-.216-.456-.564-.684-1.044-.684h-1.764V22h-3.564Zm3.564-11.772h2.304c.84 0 1.428-.216 1.764-.648.36-.432.54-1.092.54-1.98V4.9c0-.792-.168-1.368-.504-1.728-.312-.36-.804-.54-1.476-.54h-2.628v7.596Zm16.596 12.168A6.64 6.64 0 0 1 76.31 22c-.72-.24-1.308-.732-1.764-1.476-.432-.768-.648-1.908-.648-3.42V5.224c0-1.296.24-2.28.72-2.952.48-.696 1.152-1.164 2.016-1.404.864-.264 1.86-.396 2.988-.396s2.124.132 2.988.396c.864.264 1.536.744 2.016 1.44.504.672.756 1.644.756 2.916v2.88h-3.348V5.08c0-.72-.108-1.26-.324-1.62-.192-.36-.468-.6-.828-.72-.336-.12-.744-.18-1.224-.18-.432 0-.828.06-1.188.18s-.648.36-.864.72c-.192.36-.288.9-.288 1.62v12.78c0 .72.096 1.26.288 1.62.216.36.504.6.864.72s.756.18 1.188.18c.696 0 1.26-.204 1.692-.612.456-.432.684-1.068.684-1.908v-4.32H79.91v-1.98h5.472V22H82.79l-.18-1.8a4.891 4.891 0 0 1-.18.324c-.072.096-.132.18-.18.252-.288.432-.72.816-1.296 1.152-.552.312-1.332.468-2.34.468ZM91.911 22v-9.144L87.951.724h3.42l2.232 7.272.18 1.116L94 7.996 96.34.724h3.204l-4.176 12.312V22h-3.456Zm10.538 0V.724h4.248l3.564 15.12 3.6-15.12h4.212V22h-3.06V5.584L111.449 22h-2.376l-3.564-16.416V22h-3.06Z"/></symbol></svg>